/* XPM */
static char *result[] = {
/* columns rows colors chars-per-pixel */
"50 50 119 2 ",
"   c #110F15",
".  c #161516",
"X  c #1C1A16",
"o  c #161718",
"O  c #171919",
"+  c #191D1A",
"@  c #231D16",
"#  c #1C231D",
"$  c #272016",
"%  c #2C2215",
"&  c #22231A",
"*  c #23291D",
"=  c #2E291A",
"-  c #322614",
";  c #352915",
":  c #3A2B14",
">  c #372E18",
",  c #2D341F",
"<  c #34371F",
"1  c #3D331E",
"2  c #393A1F",
"3  c #1A2620",
"4  c #1C2A22",
"5  c #1E3126",
"6  c #1F372A",
"7  c #1F3E30",
"8  c #232E21",
"9  c #243525",
"0  c #2B3221",
"q  c #223927",
"w  c #213D2D",
"e  c #2A3D29",
"r  c #203F30",
"t  c #422F13",
"y  c #443516",
"u  c #4B3613",
"i  c #4A3916",
"p  c #4B3C1D",
"a  c #533C14",
"s  c #533F1A",
"d  c #463B22",
"f  c #25412C",
"g  c #2E4129",
"h  c #2C4A2D",
"j  c #344125",
"k  c #394624",
"l  c #3A4825",
"z  c #33472A",
"x  c #354B2B",
"c  c #3B4F2A",
"v  c #3E582E",
"b  c #234330",
"n  c #264B33",
"m  c #294E33",
"M  c #295234",
"N  c #2E5A36",
"B  c #2E5E39",
"V  c #335D36",
"C  c #32643B",
"Z  c #3A643B",
"A  c #346B3D",
"S  c #3A6C3D",
"D  c #3C723F",
"F  c #564017",
"G  c #5A4316",
"H  c #5F4919",
"J  c #624C1C",
"K  c #66511D",
"L  c #69541F",
"P  c #544524",
"I  c #435429",
"U  c #604E26",
"Y  c #645024",
"T  c #6F5924",
"R  c #635229",
"E  c #6A572B",
"W  c #735D25",
"Q  c #735E2A",
"!  c #52682E",
"~  c #426335",
"^  c #4F6830",
"/  c #45743F",
"(  c #4C723A",
")  c #557A3B",
"_  c #7B642D",
"`  c #617C33",
"'  c #3F7540",
"]  c #437640",
"[  c #457B42",
"{  c #4A7E42",
"}  c #57843F",
"|  c #5C823B",
" . c #668335",
".. c #688737",
"X. c #74993D",
"o. c #4C8143",
"O. c #538644",
"+. c #568A45",
"@. c #598C46",
"#. c #5F9246",
"$. c #639546",
"%. c #6A9C46",
"&. c #72A447",
"*. c #7CA642",
"=. c #77A947",
"-. c #7AAB47",
";. c #71A448",
":. c #76A948",
">. c #79AD49",
",. c #7FB148",
"<. c #82AD44",
"1. c #84B447",
"2. c #8CBA46",
"3. c #82B348",
"4. c #90BE47",
"5. c #93C247",
"6. c #97C548",
"7. c #9DCE4A",
"8. c None",
/* pixels */
"8.8.8.8.8.8.8.8.8.8.8.8.8.8.8.8.8.8.8.8.8.8.            8.8.8.8.8.8.8.8.8.8.8.8.8.8.8.8.8.8.8.8.8.8.",
"8.8.8.8.8.8.8.8.8.8.8.8.8.8.8.8.8.8.8.8.8.8.+ & X + # X 8.8.8.8.8.8.8.8.8.8.8.8.8.8.8.8.8.8.8.8.8.8.",
"8.8.8.8.8.8.8.8.8.8.8.8.8.8.8.8.8.8.8.8.8., j k l l k k , 8.8.8.8.8.8.8.8.8.8.8.8.8.8.8.8.8.8.8.8.8.",
"8.8.8.8.8.8.8.8.8.8.8.8.8.8.8.8.8.8.8.8.& k ! ` .. .` ! k & 8.8.8.8.8.8.8.8.8.8.8.8.8.8.8.8.8.8.8.8.",
"8.8.8.8.8.8.8.8.8.8.8.8.8.8.8.8.8.8.8.. * I ..<.2.2.<...I * . 8.8.8.8.8.8.8.8.8.8.8.8.8.8.8.8.8.8.8.",
"8.8.8.8.8.8.8.8.8.8.8.8.8.8.8.8.8.8.# 8 j ^ X.4.7.7.4.X.^ e 8 & 8.8.8.8.8.8.8.8.8.8.8.8.8.8.8.8.8.8.",
"8.8.8.8.8.8.8.8.8.8.8.8.8.8.8.8.8.# 9 x ~ ` *.5.7.7.5.*. .~ x 9 # 8.8.8.8.8.8.8.8.8.8.8.8.8.8.8.8.8.",
"8.8.8.8.8.8.8.8.8.8.8.8.8.8.8.8.. # z ~ O.%.<.4.6.6.4.<.%.O.~ g & . 8.8.8.8.8.8.8.8.8.8.8.8.8.8.8.8.",
"8.8.8.8.8.8.8.8.8.8.8.8.8.8.8.8.. # g ( $.:.1.2.4.4.2.3.;.$.( x # . 8.8.8.8.8.8.8.8.8.8.8.8.8.8.8.8.",
"8.8.8.8.8.8.8.8.8.8.8.8.8.8.8.8.. & x ) %.>.,.1.1.1.3.3.>.%.) x # . 8.8.8.8.8.8.8.8.8.8.8.8.8.8.8.8.",
"8.8.8.8.8.8.8.8.8.8.8.8.8.8.8.8.. * c | &.>.-.-.-.>.-.>.>.&.) c * . 8.8.8.8.8.8.8.8.8.8.8.8.8.8.8.8.",
"8.8.8.8.8.8.8.8.8.8.8.8.8.8.8.O # 9 v | &.:.:.:.-.*.-.:.-.&.} I 9 # O 8.8.8.8.8.8.8.8.8.8.8.8.8.8.8.",
"8.8.8.8.8.8.8.8.8.8.8.8.8.8.O 4 6 h Z | $.:.:.:.-.:.:.:.;.%.O.~ h q 4 O 8.8.8.8.8.8.8.8.8.8.8.8.8.8.",
"8.8.8.8.8.8.8.8.8.8.8.8.8.. # q h C D } #.%.&.&.:.:.:.;.%.#.O./ V m q # . 8.8.8.8.8.8.8.8.8.8.8.8.8.",
"8.8.8.8.8.8.8.8.8.8.8.8.o + 4 e B D } o.#.$.%.&.&.=.;.%.$.#.o.{ / V f 3 + o 8.8.8.8.8.8.8.8.8.8.8.8.",
"8.8.8.8.8.8.8.8.8.8.8.+ + 3 9 m S o.o.O.@.#.$.%.%.%.%.$.#.@.+.o.{ S h q 3 + + 8.8.8.8.8.8.8.8.8.8.8.",
"8.8.8.8.8.8.8.8.8.8.. + 3 9 f V / +.+.@.@.#.#.#.#.#.#.#.@.@.@.+.O./ V f 5 3 O o 8.8.8.8.8.8.8.8.8.8.",
"8.8.8.8.8.8.8.8.8.. o + 3 q m Z / +.@.@.@.@.@.+.#.@.@.@.@.@.@.@.o.} Z M 6 4 # o . 8.8.8.8.8.8.8.8.8.",
"8.8.8.8.8.8.8.8.8.. O # 5 n N S / o.O.+.@.@.@.@.@.@.@.@.@.@.+.O.} D A N n 5 # o . 8.8.8.8.8.8.8.8.8.",
"8.8.8.8.8.8.8.8.8.. . # q M C A D D o.+.@.@.@.@.@.@.+.@.@.@.O.o.D D A C M q # o . 8.8.8.8.8.8.8.8.8.",
"8.8.8.8.8.8.8.8.8.. . # f N A A A D D o.+.+.@.+.+.+.+.@.@.O.o.' D A A A N f # o . 8.8.8.8.8.8.8.8.8.",
"8.8.8.8.8.8.8.8.8.. . # f B A A A A D o.o.o.o.o.o.o.o.o.o.o.o.D A A A D C f # o . 8.8.8.8.8.8.8.8.8.",
"8.8.8.8.8.8.8.8.8.. o # f N A ' A A A D D / D D D D D D D D D A A A A A N f # o   8.8.8.8.8.8.8.8.8.",
"8.8.8.8.8.8.8.8.8.. + # 7 N C A A A A A A A D A A A D A D A A A A A A C N f # o . 8.8.8.8.8.8.8.8.8.",
"8.8.8.8.8.8.8.8.8.. . # q m B A A A A A A A A A A A A A A A A A ' B C B n 6 # o . 8.8.8.8.8.8.8.8.8.",
"8.8.8.8.8.8.8.8.8.. . # 5 f M B C A A A A A A A A A A A A A A A ' C B M b 5 # o . 8.8.8.8.8.8.8.8.8.",
"8.8.8.8.8.8.8.8.8.. o + 4 6 n M C C A A A C A A A A A A A A A A A B M b 7 4 # o . 8.8.8.8.8.8.8.8.8.",
"8.8.8.8.8.8.8.8.8.. o + 4 6 b n B B B B B B B B B B B B B B B B B N M b 6 3 O o . 8.8.8.8.8.8.8.8.8.",
"8.8.8.8.8.8.8.8.8.o o + 4 6 r n n M M M M m m m m M m M n M M n n n n b 6 4 + o . 8.8.8.8.8.8.8.8.8.",
"8.8.8.8.8.8.8.8.8.o o # 4 6 7 b 7 b b 7 b b b b b b b b b b b b b f b b 6 4 + o . 8.8.8.8.8.8.8.8.8.",
"8.8.8.8.8.8.8.8.8.8.O O # 6 6 q w 7 7 7 7 w w 7 7 7 b 7 7 7 7 7 7 7 6 6 5 4 + . 8.8.8.8.8.8.8.8.8.8.",
"8.8.8.8.8.8.8.8.8.8.O O 3 # 4 5 w 7 b 7 7 7 7 7 7 7 7 7 7 7 7 7 b 6 6 4 3 + + . 8.8.8.8.8.8.8.8.8.8.",
"8.8.8.8.8.8.8.8.8.8.8.o + + + 4 6 7 f w r w b r w b r w r f r f 7 6 4 3 + O . 8.8.8.8.8.8.8.8.8.8.8.",
"8.8.8.8.8.8.8.8.8.8.8.8.. . o 3 5 6 6 w w e e e e e e e e q 6 w 6 4 4 o . . 8.8.8.8.8.8.8.8.8.8.8.8.",
"8.8.8.8.8.8.8.8.8.8.8.8.. o O # # 4 4 * 8 0 < < 2 2 2 < , * * 4 4 3 # o . . 8.8.8.8.8.8.8.8.8.8.8.8.",
"8.8.8.8.8.8.8.8.8.8.8.8.8.8.o o + + & % = : y i i i y y 1 ; * @ O + o o 8.8.8.8.8.8.8.8.8.8.8.8.8.8.",
"8.8.8.8.8.8.8.8.8.8.8.8.8.8.8.O X @ @ - ; y u a a a a u t : % @ + O O 8.8.8.8.8.8.8.8.8.8.8.8.8.8.8.",
"8.8.8.8.8.8.8.8.8.8.8.8.8.8.8.X @ @ @ : t u a a J G a a u t : % @ @ X 8.8.8.8.8.8.8.8.8.8.8.8.8.8.8.",
"8.8.8.8.8.8.8.8.8.8.8.8.8.8.8.@ @ - ; t u a G J J J J G a u t : - @ @ 8.8.8.8.8.8.8.8.8.8.8.8.8.8.8.",
"8.8.8.8.8.8.8.8.8.8.8.8.8.8.8.@ @ - : y u a J J K L K J a u t : - % @ 8.8.8.8.8.8.8.8.8.8.8.8.8.8.8.",
"8.8.8.8.8.8.8.8.8.8.8.8.8.8.8.@ % % ; : y s U W W W W U s y : - % % @ 8.8.8.8.8.8.8.8.8.8.8.8.8.8.8.",
"8.8.8.8.8.8.8.8.8.8.8.8.8.8.8.8.8.@ % - : p Y Q _ _ Q E p : - % @ 8.8.8.8.8.8.8.8.8.8.8.8.8.8.8.8.8.",
"8.8.8.8.8.8.8.8.8.8.8.8.8.8.8.8.8.8.@ % ; d U Q _ _ Q P p ; % @ 8.8.8.8.8.8.8.8.8.8.8.8.8.8.8.8.8.8.",
"8.8.8.8.8.8.8.8.8.8.8.8.8.8.8.8.8.8.O @ % y P R E E R P y % @ X 8.8.8.8.8.8.8.8.8.8.8.8.8.8.8.8.8.8.",
"8.8.8.8.8.8.8.8.8.8.8.8.8.8.8.8.8.8.8.X @ = 1 d d d d 1 = @ X 8.8.8.8.8.8.8.8.8.8.8.8.8.8.8.8.8.8.8.",
"8.8.8.8.8.8.8.8.8.8.8.8.8.8.8.8.8.8.8.8.8.8.8.8.8.8.8.8.8.8.8.8.8.8.8.8.8.8.8.8.8.8.8.8.8.8.8.8.8.8.",
"8.8.8.8.8.8.8.8.8.8.8.8.8.8.8.8.8.8.8.8.8.8.8.8.8.8.8.8.8.8.8.8.8.8.8.8.8.8.8.8.8.8.8.8.8.8.8.8.8.8.",
"8.8.8.8.8.8.8.8.8.8.8.8.8.8.8.8.8.8.8.8.8.8.8.8.8.8.8.8.8.8.8.8.8.8.8.8.8.8.8.8.8.8.8.8.8.8.8.8.8.8.",
"8.8.8.8.8.8.8.8.8.8.8.8.8.8.8.8.8.8.8.8.8.8.8.8.8.8.8.8.8.8.8.8.8.8.8.8.8.8.8.8.8.8.8.8.8.8.8.8.8.8.",
"8.8.8.8.8.8.8.8.8.8.8.8.8.8.8.8.8.8.8.8.8.8.8.8.8.8.8.8.8.8.8.8.8.8.8.8.8.8.8.8.8.8.8.8.8.8.8.8.8.8."