/* XPM */
static char *result[] = {
/* columns rows colors chars-per-pixel */
"50 50 158 2 ",
"   c #44231F",
".  c #472521",
"X  c #4B2722",
"o  c #4E2A27",
"O  c #4A2B2A",
"+  c #552C27",
"@  c #532D29",
"#  c #5A2E29",
"$  c #5E332E",
"%  c #593534",
"&  c #60332E",
"*  c #623530",
"=  c #6A3732",
"-  c #643A35",
";  c #6C3A35",
":  c #663D38",
">  c #6E3E39",
",  c #723F39",
"<  c #6F403B",
"1  c #71423C",
"2  c #7E423C",
"3  c #543E44",
"4  c #5E444B",
"5  c #4E4A59",
"6  c #554751",
"7  c #574852",
"8  c #5F4A54",
"9  c #6B4743",
"0  c #6B4945",
"q  c #60484F",
"w  c #6E4E4A",
"e  c #734641",
"r  c #754945",
"t  c #744E4A",
"y  c #784F4B",
"u  c #75514D",
"i  c #7A524D",
"p  c #624C54",
"a  c #624E58",
"s  c #695056",
"d  c #63515B",
"f  c #6B545E",
"g  c #765652",
"h  c #7C5551",
"j  c #7D5956",
"k  c #72575C",
"l  c #775B58",
"z  c #7E5E5B",
"x  c #424E64",
"c  c #47546B",
"v  c #4A566D",
"b  c #4D596F",
"n  c #575566",
"m  c #5C5667",
"M  c #4A5770",
"N  c #4D5A72",
"B  c #525E74",
"V  c #6E5761",
"C  c #6E5862",
"Z  c #725B64",
"A  c #7C5E67",
"S  c #7D5F69",
"D  c #556076",
"F  c #55637E",
"G  c #5A667E",
"H  c #5D687D",
"J  c #6F6067",
"K  c #75616B",
"L  c #7D646A",
"P  c #656377",
"I  c #676579",
"U  c #686579",
"Y  c #84453F",
"T  c #814640",
"R  c #864942",
"E  c #884A43",
"W  c #914F48",
"Q  c #935049",
"!  c #9B544C",
"~  c #84635F",
"^  c #836663",
"/  c #886A67",
"(  c #89666E",
")  c #81696C",
"_  c #8A6E6B",
"`  c #8B706E",
"'  c #8B7471",
"]  c #8F7977",
"[  c #867D7C",
"{  c #897D7B",
"}  c #907876",
"|  c #927C7A",
" . c #93807E",
".. c #586680",
"X. c #5D6A83",
"o. c #5E6D8A",
"O. c #626E85",
"+. c #606F8C",
"@. c #667186",
"#. c #64718B",
"$. c #6B768C",
"%. c #7A7986",
"&. c #677795",
"*. c #687491",
"=. c #6E7B95",
"-. c #6E7E9E",
";. c #717D94",
":. c #707E9D",
">. c #6E7FA0",
",. c #7D808D",
"<. c #738097",
"1. c #72819D",
"2. c #7D879B",
"3. c #7E899D",
"4. c #6F80A1",
"5. c #7181A1",
"6. c #7887A5",
"7. c #7888A7",
"8. c #8A8685",
"9. c #8B8887",
"0. c #8F8988",
"q. c #958482",
"w. c #988785",
"e. c #978887",
"r. c #988987",
"t. c #978D8B",
"y. c #9B8E8D",
"u. c #9B908E",
"i. c #8C8B93",
"p. c #8A919D",
"a. c #929695",
"s. c #9D9492",
"d. c #92949C",
"f. c #9D9B9B",
"g. c #A09594",
"h. c #A49D9C",
"j. c #828DA4",
"k. c #818EA8",
"l. c #8E96A0",
"z. c #8694AE",
"x. c #8895AF",
"c. c #9C9FA0",
"v. c #939CAF",
"b. c #8795B1",
"n. c #8996B0",
"m. c #8D9AB3",
"M. c #929EB5",
"N. c #929FB8",
"B. c #95A0B5",
"V. c #95A1B9",
"C. c #9CA6BC",
"Z. c #9EA9BE",
"A. c #A3A2A2",
"S. c #A9A4A4",
"D. c #ADB2B2",
"F. c #9DA9C0",
"G. c #A2ACC1",
"H. c None",
/* pixels */
"H.H.H.H.H.H.H.H.H.H.H.H.H.H.H.H.H.H.H.H.H.H.H.H.H.H.H.H.H.H.H.H.H.H.H.H.H.H.H.H.H.H.H.H.H.H.H.H.H.H.",
"H.H.H.H.H.H.H.H.H.H.H.H.H.H.H.H.H.H.H.H.H.H.H.H.H.H.H.H.H.H.H.H.H.H.H.H.H.H.H.H.H.H.H.H.H.H.H.H.H.H.",
"H.H.H.H.H.H.H.H.H.H.H.H.H.H.H.H.H.H.H.H.H.H.H.H.H.H.H.H.H.H.H.H.H.H.H.H.H.H.H.H.H.H.H.H.H.H.H.H.H.H.",
"H.H.H.H.H.H.H.H.H.H.H.H.H.H.H.H.H.H.H.H.H.H.H.H.H.H.H.H.H.H.H.H.H.H.H.H.H.H.H.H.H.H.H.H.H.H.H.H.H.H.",
"H.H.H.H.H.H.H.H.H.H.H.H.H.H.H.H.H.H.H.H.H.H.H.H.H.H.H.H.H.H.H.H.H.H.H.H.H.H.H.H.H.H.H.H.H.H.H.H.H.H.",
"H.H.H.H.H.H.H.H.H.H.H.H.H.H.H.H.H.H.H.H.H.H.H.H.H.H.H.H.H.H.H.H.H.H.H.H.H.H.H.H.H.H.H.H.H.H.H.H.H.H.",
"H.H.H.H.H.H.H.H.H.H.H.H.H.H.H.H.H.H.H.H.H.x.x.x.x.x.x.x.x.H.H.H.H.H.H.H.H.H.H.H.H.H.H.H.H.H.H.H.H.H.",
"H.H.H.H.H.H.H.H.H.H.H.H.H.H.H.H.H.H.H.H.n.x.x.x.x.x.x.x.x.n.H.H.H.H.H.H.H.H.H.H.H.H.H.H.H.H.H.H.H.H.",
"H.H.H.H.H.H.H.H.H.H.H.H.H.H.H.H.H.H.H.H.z.x.z.n.x.x.n.x.x.b.H.H.H.H.H.H.H.H.H.H.H.H.H.H.H.H.H.H.H.H.",
"H.H.H.H.H.H.H.H.H.H.H.x.x.x.x.x.n.n.;.b <.n.z.z.z.z.z.z.x.<.b =.n.x.x.x.x.x.x.H.H.H.H.H.H.H.H.H.H.H.",
"H.H.H.H.H.H.H.H.H.H.H.x.x.x.x.x.z.n.;.v ;.N.m.M.M.m.m.M.M.;.b =.n.n.x.x.x.x.x.H.H.H.H.H.H.H.H.H.H.H.",
"H.H.H.H.H.H.H.H.H.H.H.x.x.x.x.x.n.n.=.N 2.G.G.G.G.G.G.G.G.2.b ;.n.x.x.x.x.x.x.H.H.H.H.H.H.H.H.H.H.H.",
"x O.z.n.x.x.x.n.z.H.G 7.n.x.z.z.z.n.;.v =.m.n.m.n.m.n.m.m.=.v =.n.n.b.z.z.n.j.H H.z.x.x.x.x.x.x.O.x ",
"x O.z.n.x.x.x.n.z.X.B j.M.m.m.n.m.m.<.v o.>.:.:.-.5.-.5.5.o.v <.m.m.m.m.m.M.k.B X.x.x.x.x.x.x.x.O.x ",
"x O.z.n.x.x.x.n.z.H D M.G.Z.G.G.G.G.j.v X.>.-.>.>.-.>.-.:.o.v j.G.G.G.G.G.G.M.B H z.x.x.x.x.x.x.o.x ",
"x o.z.z.z.z.z.n.z.H B z.V.M.M.M.N.V.<.v o.5.5.:.>.>.-.:.:.o.v <.N.m.M.m.M.N.z.B H z.x.x.x.x.x.x.O.x ",
"x O.x.M.n.n.n.m.x.X.N &.5.4.4.4.5.5.+.v o.4.>.>.>.>.>.>.5.o.v +.5.>.5.>.>.6.&.N O.n.m.n.n.m.m.x.O.x ",
"x $.Z.G.Z.G.G.G.C.@.N &.4.4.4.4.-.>.o.c o.5.5.5.5.5.5.5.5.o.c o.>.>.>.>.:.:.&.M O.C.G.G.G.Z.Z.Z.$.x ",
"x @.N.V.N.N.V.V.V.O.N &.5.4.4.4.5.5.+.5 n P U U U U U U P n 5 +.5.5.4.4.>.5.&.M O.N.N.V.N.V.V.N.#.x ",
"x ..:.6.>.6.>.6.5.D v $.-.-.=.<.-.:.P % O O % % % % % % O O % U >.=.-.=.:.:.*.N D >.>.6.>.6.5.>...x ",
"x G -.>.>.>.>.>.-.m 3 8 a 8 6 8 p a q #     @ # # # # @ . . # 4 a p 7 6 8 p 8 3 C -.>.>.>.>.>.-...x ",
"x G >.>.>.>.>.>.-.d # # # +     # $ # % + o # * # $ % $ X o $ $ # $ X . @ # # # 8 -.>.>.>.>.>.>...x ",
"x ..-.-.>.>.>.>.-.d # # $ +   @ ; ; ; ; $ $ = ; ; ; ; = $ % = ; ; - @ . @ $ $ + V >.>.>.>.>.>.>.F x ",
"x M ..B B ..B ..B 4 & & & $ @ % ; ; ; ; & & ; ; ; ; ; ; * * ; ; ; ; $ @ * * = & 6 B ..B B ..B ..M x ",
"x v B D D D D D D s r u u t - $ ; ; ; ; * & ; ; , ; ; ; * * = ; ; ; & * ; , ; ; q B D D D D D D v x ",
"x O.M.N.v.B.v.N.M.i. .L t.t.1 & , ; ; ; * % ; ; ; ; ; = * * ; ; ; , & & ; ; ; ; L M.B.M.v.M.V.M.@.x ",
"x O.N.N.M.N.N.N.m.l.a.c.D.A.w $ ; ; ; = & & ; ; ; ; , ; * * = ; ; ; & & = ; ; ; L M.N.N.M.M.N.m.@.x ",
"x ..>.>.>.>.1.1.4.,.0.h.S.u.0 $ ; ; 1 e - & ; ; ; ; ; ; % - e 1 ; , & % ; ; ; ; f :.4.1.1.5.5.:...x ",
"x F -.:.:.:.-.>.:.K y h j u ; & ; ; ~ q.g $ ; ; ; ; ; ; # g e.j ; ; * $ ; ; ; ; C -.-.-.:.-.>.-.F x ",
"x ..>.>.>.>.>.>.:.f = = = = $ * ; ; h | ' g > ; ; ; ; < h ' q.h ; ; * & ; ; = ; C :.4.:.>.>.5.-...x ",
"x F -.5.:.>.>.5.:.C ; ; ; ; % & ; ; ; e  .e.e ; ; > ; e e.| e ; ; ; & $ = , 1 , V -.4.4.>.:.>.-.F x ",
"x ..5.5.5.5.5.5.:.C ; ; ; ; & * ; ; ; ; y g > = ; ; ; > g t ; ; ; ; * $ ; ^ | r f 1.5.5.5.5.5.>...x ",
"x N #.+.+.+.+.#.o.d ; ; ; ; & & ; ; ; ; & $ ; i j 1 ; = $ & ; ; ; ; * & = ] h.h p +.+.o.+.o.+.+.B x ",
"x c v M v v M M v q ; ; ; ; & * ; ; , ; & $ ; ` u.i ; = & * ; ; ; ; & & ; ] h.h 4 v c c M M v M c x ",
"x H 2.3.3.2.p.6.2.k ; ; ; ; & * ; ; ; ; & & ; j `  .~ ; & & ; ; ; ; * & ; ] h.h k 2.2.p.2.2.p.1.H x ",
"x $.C.F.C.C.V.F.C.) ; ; ; ; & * ; ; ; ; & & ; = r w.` ; & & ; ; ; ; & $ ; } h.i L C.C.C.F.C.F.C.$.x ",
"x ..6.6.6.6.6.7.6.Z ; ; ; ; % & ; , ; ; * $ ; ; 1 r e ; & & ; ; ; , & & ; } h.i f 6.7.6.6.6.6.6...x ",
"x ..-.>.-.-.-.>.=.k ; ; ; ; & & ; ; ; ; z ^ 1 ; ; ; ; = & w ` y = ; * $ ; } h.h f -.>.-.>.-.>.-.F x ",
"x F -.>.>.>.-.>.-.V ; ; ; ; & * ; ; < i q.q.r = ; ; ; = $ l s./ e > * $ ; _ y.i f :.5.>.>.:.>.-...x ",
"x ..-.>.-.>.>.>.-.V ; ; ; ; & * ; = j u.) 0 ; ; ; ; , ; $ : j q.| 1 & & ; e u , f :.>.:.>.>.>.-.F x ",
"x ..4.4.4.4.4.4.:.V ; ; ; ; & & ; ; h } u # ; ; < ; ; ; $ $ ; / ` 1 & % ; ; = = V :.4.>.>.>.>.>...x ",
"x F =.=.-.-.-.=.&.V ; ; ; ; & & ; ; ; 1 * $ ; ; ; ; ; ; & * ; < , ; & $ ; ; ; ; V =.-.=.-.-.>.=.D x ",
"x c N N M N N N N q ; ; = = & * ; ; ; ; & & ; ; ; ; ; ; & * ; ; ; ; * & = ; ; ; 4 N N N N N N N c x ",
"x B X.@.O.O.@.@.O.Z i g z j : & ; ; ; ; * & ; ; ; ; ; ; $ * ; ; ; ; * * ; ; ; ; s O.O.O.O.O.O.O.B x ",
"x $.C.C.C.C.C.C.C.p.9.9.f.s.w $ ; ; , ; * * ; ; ; ; , ; * * ; ; ; ; * & ; ; ; ; ) C.F.C.C.C.Z.C.$.x ",
"x o.z.n.z.z.z.z.x.p.a.A.D.A.w & ; ; ; ; * & ; ; ; ; ; ; & * < ; ; ; * & ; ; ; ; A z.n.z.x.z.b.z.o.x ",
"x F -.4.-.-.-.-.1.%. .t.g. .< $ ; ; ; ; * $ = ; ; ; ; ; & * = < ; ; * & ; ; ; ; V &.>.-.-.-.-.-.F x ",
"x F 1.4.4.-.4.4.-.J 1 r r e % * ; ; < ; * $ ; < ; ; ; ; & * ; < ; ; * * ; ; ; ; C -.5.>.>.:.>.-.F x ",
"x F -.4.4.-.4.4.-.A Y Y Y Y & ; Y Y E Y < = 2 E E E E Y - ; Y E E R ; * Y E R R S :.>.4.-.1.5.-.F x ",
"x F 4.4.-.4.4.4.-.( ! ! ! W = , ! ! ! ! < = Q ! ! ! ! Q = < Q ! ! ! , ; W ! ! ! ( :.4.-.-.>.5.-...x "