/* XPM */
static char *result[] = {
/* columns rows colors chars-per-pixel */
"50 50 223 2 ",
"   c #060000",
".  c #0A0102",
"X  c #0F0A0A",
"o  c #150A0C",
"O  c #180407",
"+  c #140E10",
"@  c #041919",
"#  c #081515",
"$  c #181719",
"%  c #0F0F11",
"&  c #2C080E",
"*  c #26090E",
"=  c #2C0A10",
"-  c #29171B",
";  c #39131A",
":  c #360D14",
">  c #1D1F22",
",  c #331C22",
"<  c #1E3E3E",
"1  c #2B2427",
"2  c #372328",
"3  c #2A2E32",
"4  c #28383A",
"5  c #3C393C",
"6  c #410E17",
"7  c #440F18",
"8  c #44111A",
"9  c #49161E",
"0  c #4C1C24",
"q  c #4C2128",
"w  c #442328",
"e  c #51242B",
"r  c #572D34",
"t  c #5C333A",
"y  c #5C393E",
"u  c #573238",
"i  c #4D3035",
"p  c #553D41",
"a  c #623C43",
"s  c #144645",
"d  c #185756",
"f  c #0D4A48",
"g  c #294647",
"h  c #2F5A5A",
"j  c #3D5A59",
"k  c #186C6C",
"l  c #1D7171",
"z  c #2A7472",
"x  c #4D4F4F",
"c  c #6B494E",
"v  c #664449",
"b  c #6D4D51",
"n  c #74585C",
"m  c #6A5457",
"M  c #767B54",
"N  c #7A5D62",
"B  c #556462",
"V  c #4C726D",
"C  c #677776",
"Z  c #6F6C6D",
"A  c #A67B43",
"S  c #897275",
"D  c #368E79",
"F  c #3C937D",
"G  c #6C9E5B",
"H  c #7EA659",
"J  c #578568",
"K  c #43977B",
"L  c #589576",
"P  c #4A9274",
"I  c #678965",
"U  c #728D66",
"Y  c #749679",
"T  c #70956D",
"R  c #4AA97F",
"E  c #54A978",
"W  c #64A56B",
"Q  c #78A36B",
"!  c #9F9D39",
"~  c #A9A73D",
"^  c #B9A632",
"/  c #D7A41C",
"(  c #ECA60F",
")  c #EEAA0F",
"_  c #FBA904",
"`  c #F5AB0B",
"'  c #F9AA08",
"]  c #E9A711",
"[  c #E8A815",
"{  c #F4AB17",
"}  c #C7A729",
"|  c #D4A621",
" . c #CDA938",
".. c #E7AC27",
"X. c #E3AD38",
"o. c #F4B534",
"O. c #F3B73B",
"+. c #F3B32F",
"@. c #9A945A",
"#. c #909A45",
"$. c #B5864D",
"%. c #BE9555",
"&. c #A1855D",
"*. c #9AA647",
"=. c #8DA555",
"-. c #8EA84F",
";. c #A2A642",
":. c #ABA44F",
">. c #869768",
",. c #969662",
"<. c #B0936F",
"1. c #B3AD6D",
"2. c #C78A47",
"3. c #D79248",
"4. c #D59A57",
"5. c #CC904A",
"6. c #ED9C4B",
"7. c #E39547",
"8. c #F49F4C",
"9. c #C0AA43",
"0. c #F6A24E",
"q. c #E9B444",
"w. c #F2BA47",
"e. c #F9A450",
"r. c #EDA154",
"t. c #C49965",
"y. c #D6A86B",
"u. c #E8C170",
"i. c #168E8A",
"p. c #18968D",
"a. c #169C94",
"s. c #1C9C93",
"d. c #199C98",
"f. c #0F968F",
"g. c #2A9687",
"h. c #399987",
"j. c #229B95",
"k. c #259B97",
"l. c #399C97",
"z. c #3F8885",
"x. c #0CA39D",
"c. c #07A29D",
"v. c #13A39C",
"b. c #1EA49F",
"n. c #1DAB9E",
"m. c #37AA8B",
"M. c #2CA19D",
"N. c #27A597",
"B. c #34A19C",
"V. c #25A28E",
"C. c #0EA6A0",
"Z. c #06ADA6",
"A. c #0CABA5",
"S. c #07AEA9",
"D. c #0BAFA9",
"F. c #1BA7A2",
"G. c #12ACA5",
"H. c #1CABA4",
"J. c #12ADA8",
"K. c #14A6A2",
"L. c #0AB0AA",
"P. c #04B0AC",
"I. c #2DA6A2",
"U. c #24AAA5",
"Y. c #29A9A5",
"T. c #3CAAA4",
"R. c #35A9A5",
"E. c #449996",
"W. c #539D9A",
"Q. c #5A9D9A",
"!. c #539186",
"~. c #6D8887",
"^. c #6F9A94",
"/. c #43A787",
"(. c #48A29F",
"). c #51A29E",
"_. c #5FA09D",
"`. c #5CA187",
"'. c #78A89C",
"]. c #6BA29F",
"[. c #4DA5A1",
"{. c #45AFAC",
"}. c #46A7A4",
"|. c #56ABA7",
" X c #47B0AC",
".X c #57B2AE",
"XX c #5CB6B2",
"oX c #53B4B0",
"OX c #68A6A3",
"+X c #78ACAA",
"@X c #63B0AD",
"#X c #74B3AF",
"$X c #63B4B2",
"%X c #65B9B6",
"&X c #6CB5B2",
"*X c #79B7B4",
"=X c #8A9998",
"-X c #9B878A",
";X c #A29295",
":X c #80AF95",
">X c #AFB787",
",X c #86ACAB",
"<X c #84BCBA",
"1X c #91BFBD",
"2X c #90B5B4",
"3X c #84B0AE",
"4X c #AEA8A9",
"5X c #B6ACAD",
"6X c #C1BFA1",
"7X c #8DC1BF",
"8X c #91C0BE",
"9X c #B4C4B0",
"0X c #D0C187",
"qX c #ECCF9A",
"wX c #E6D5B6",
"eX c #98C3C0",
"rX c #A0C6C4",
"tX c #BCC3C3",
"yX c #CADADA",
"uX c #D8D7D8",
"iX c #DDE0E3",
"pX c #E5E4E4",
"aX c None",
/* pixels */
"aXaXaXaXaXaXaXaXaXaXaXaXaXaXaXaX;Xv e t c S 5XuXaXaXaXaXaXaXaXaXaXaXaXaXaXaXaXaXaXaXaXaXaXaXaXaXaXaX",
"aXaXaXaXaXaXaXaXaXaXaXaXaXaXaXaXn u 0 e t c S -X4XaXaXaXaXaXaXaXaXaXaXaXaXaXaXaXaXaXaXaXaXaXaXaXaXaX",
"aXaXaXaXaXaXaXaXaXaXaXaXaXaXaXc r 9 8 8 8 8 0 y n ;XaXaXaXaXaXaXaXaXaXaXaXaXaXaXaXaXaXaXaXaXaXaXaXaX",
"aXaXaXaXaXaXaXaXaXaXaXaXaXaXaXy 9 7 6 6 6 6 7 0 e a b n v t t n aXaXaXaXaXaXaXaXaXaXaXaXaXaXaXaXaXaX",
"aXaXaXaXaXaXaXaXaXaXaXaXaXaXx w * * = = = = = = & ; w i q 8 9 y n aXaXaXaXaXaXaXaXaXaXaXaXaXaXaXaXaX",
"aXaXaXaXaXaXaXaXaXaXaXaXaXaX- + . . . . . . . . O o O O * & : w y aXaXaXaXaXaXaXaXaXaXaXaXaXaXaXaXaX",
"aXaXaXaXaXaXaXaXaXaXaXaXaXaX$ X .   . .     .   .       . . O : w v c v v c aXaXaXaXaXaXaXaXaXaXaXaX",
"aXaXaXaXaXaXaXaXaXaXaXaXaXaX- O o o o o + + % % # # @ @ @ @ $ > 2 i u t r t a aXaXaXaXaXaXaXaXaXaXaX",
"aXaXaXaXaXaXaXaXaXaXaXn b u 2 - 1 1 1 3 3 3 4 < s s f f d d d d g 1 ; 7 7 0 e aXaXaXaXaXaXaXaXaXaXaX",
"aXaXaXaXaXaXaXaXaXaXaXaXN m x 5 4 4 h k l z.!.V B g g g V z.i.f.k 3 ; 7 0 0 aXaXaXaXaXaXaXaXaXaXaXaX",
"aXaXaXaXaXaXaXaXaXaXaXaXaXaXZ B j h k i.d.R.*X:XC x x x ~.[.J.D.i.g , 9 a aXaXaXaXaXaXaXaXaXaXaXaXaX",
"aXaXaXaXaXaXaXaXaXaXaXaXaXaX5X=XB B V D d.U.&X3X'.C C ~._.T.G.S.a.h aXaXaXaXaXaXaXaXaXaXaXaXaXaXaXaX",
"aXaXaXaXaXaXaXaXaXaXaXaXaXuXtX,X!.P I #.W /.T. X XE.E.(.T.U.D.S.x.aXaXaXaXaXaXaXaXaXaXaXaXaXaXaXaXaX",
"aXaXaXaXaXaXaXaXaXaXaXaXaXwX6X'./.`.#.} ^ H m.V.N.H.J.J.A.A.A.Z.A.aXaXaXaXaXaXaXaXaXaXaXaXaXaXaXaXaX",
"aXaXaXaXaXaXaXaXaXaXw.w.w.w.q.^ ;.;.^ ) ) / ~ =.E m.N.L.D.D.D.Z.Z.aXaXaXaXaXaXaXaXaXaXaXaXaXaXaXaXaX",
"aXaXaXaXaXaXaXaXaXw.w.o.o.o...../ / ] _ _ _ [ } ~ -.E N.J.D.D.D.Z.aXaXaXaXaXaXaXaXaXaXaXaXaXaXaXaXaX",
"aXaXaXaXaXaXaXaXaXo.o.O.O.O.X.X.| / ] ] ] ( ( ( [ / -.R H.S.L.S.S.aXaXaXaXaXaXaXaXaXaXaXaXaXaXaXaXaX",
"aXaXaXaXaXaXaXaXaXaXaXaXaXaXqX>XQ =.-.*.;.;.~ ;.*.=.W m.G.S.S.S.D.aXaXaXaXaXaXaXaXaXaXaXaXaXaXaXaXaX",
"aXaXaXaXaXaXaXaXaXaXaXaXaXaXiX7Xm.m.m.R E E E E R m.m.n.J.D.D.S.J.aXaXaXaXaXaXaXaXaXaXaXaXaXaXaXaXaX",
"aXaXaXaXaXaXaXaXaXaXaXaXaXaXiXeXk.K.D.C.J.D.J.J.D.D.L.L.D.D.D.S.J.B.aXaXaXaXaXaXaXaXaXaXaXaXaXaXaXaX",
"aXaXaXaXaXaXaXaXaXaXaXaXaXaXpXeXI.K.P.P.P.P.P.L.S.L.L.L.D.D.D.L.K.g.~.aXaXaXaXaXaXaXaXaXaXaXaXaXaXaX",
"aXaXaXaXaXaXaXaXaXaXaXaXaXaXaX8XB.K.D.D.D.D.D.D.L.D.D.D.D.D.L.L.C.g.Y t.y.aXaXaXaXaXaXaXaXaXaXaXaXaX",
"aXaXaXaXaXaXaXaXaXaXaXaXaXaXpX1Xl.K.S.D.D.D.D.D.L.L.D.D.D.D.D.L.A.a.L @.3.7.3.7.3.3.aXaXaXaXaXaXaXaX",
"aXaXaXaXaXaXaXaXaXaXaXaXaXaXrX@Xb.K.Z.D.D.D.D.D.D.D.D.D.D.D.D.L.D.x.j.L ,.5.7.6.0.6.6.aXaXaXaXaXaXaX",
"aXaXaXaXaXaXaXaXaXaXaXaXaXrX.XR.G.D.D.D.D.D.D.D.D.D.D.D.D.D.D.D.Z.D.A.v.K >.4.0.e.e.e.0.aXaXaXaXaXaX",
"aXaXaXaXaXaXaXaXaXaXaXaX*X|.U.D.D.D.D.D.D.D.D.D.D.D.D.D.D.D.D.D.A.c.c.x.v./.Q 4.e.e.aXaXaXaXaXaXaXaX",
"aXaXaXaXaXaXaXaXaXaXaX&XT.F.v.C.x.A.D.D.D.D.D.D.D.D.L.D.D.D.D.L.A.a.D h.j.s.h.>.5.4.aXaXaXaXaXaXaXaX",
"aXaXaXaXaXaXaXaXaXaXaXB.F.G.U.k.s.K.S.D.D.D.D.D.D.D.D.D.D.D.D.L.A.i.J M J h.j.F I &.aXaXaXaXaXaXaXaX",
"aXaXaXaXaXaXaXaXaXaXR.b.I.oX<X#XE.K.S.L.D.D.D.L.D.D.D.D.D.D.L.L.C.p.U $.5.@.L g.h.~.aXaXaXaXaXaXaXaX",
"aXaXaXaXaXaXaXaXaXl.B.R.oXaXaX2X).H.S.A.J.D.D.D.D.D.D.D.D.D.J.L.A.s.U 3.r.4.&.K s.l.aXaXaXaXaXaXaXaX",
"aXaXaXaXaXaXaXaXaXl.[.aXaXaXaX+X).F.S.L.D.D.D.D.D.D.D.D.D.D.L.L.A.a.U 2.r.r.4.aXaXk.aXaXaXaXaXaXaXaX",
"aXaXaX+XOXaXaXaXaXaXaXaXaXaXaXaX).U.Z.D.L.D.D.D.D.D.D.D.D.D.L.L.A.s.J A 2.4.0XaXaXaXj.k.aXaXaX,XaXaX",
"aXaXaX+XQ.j.j.k.l.aXaXaXaXaXaXaX[.U.Z.D.D.D.D.D.D.D.L.A.D.D.D.L.A.a.I A $.<.aXaXaXaXk.d.k.l.Q.+X3XaX",
"aXaX|.Q.l.a.c.v.k.[.aXaXaXaXaXaX[.H.S.D.D.D.D.D.D.D.L.L.D.L.D.L.A.s.U $.<.aXaXaXaXaXaXF.C.l.W.Q.OX'.",
"aXaXaXQ.E.d.aXaXaXaXaXaXaXaXaXaX[.U.L.A.D.D.D.D.L.L.D.L.D.J.L.L.Z.d.L %.aXaXaXaXaXaXaXaXaXl.Q.aXaXaX",
"aXaXaXaXaXaXaXaXaXaXaXaXaXaXaXaX[.H.Z.L.D.L.D.D.L.A.L.J.D.D.L.L.C.f.!.<.aXaXaXaXaXaXaXaXaXaXaXaXaXaX",
"aXaXaXaXaXaXaXaXaXaXaXaXaXaXaX<X}.K.L.L.D.D.D.D.A.L.A.L.L.J.D.L.Z.f.W.=XaXaXaXaXaXaXaXaXaXaXaXaXaXaX",
"aXaXaXaXaXaXaXaXaXaXaXaXaXaX1X.XM.J.L.Z.D.D.D.D.L.L.L.L.D.L.D.L.C.x.k.).aXaXaXaXaXaXaXaXaXaXaXaXaXaX",
"aXaXaXaXaXaXaXaXaXaXaXaXaXeX@XT.K.D.D.D.D.D.D.D.A.J.L.L.D.D.D.D.Z.Z.K.H. XaXaXaXaXaXaXaXaXaXaXaXaXaX",
"aXaXaXaXaXaXaXaXaXaXaXaX#X}.Y.G.A.D.D.D.D.D.D.D.L.L.L.A.D.D.D.D.D.D.Z.J.J.U.aXaXaXaXaXaXaXaXaXaXaXaX",
"aXaXaXaXaXaXaXaXaXaXaX#X}.F.C.D.D.L.L.S.D.S.S.S.Z.L.Z.Z.Z.Z.Z.Z.S.D.S.D.Z.A.H.aXaXaXaXaXaXaXaXaXaXaX",
"aXaXaXaXaXaXaXaXaXaXaXB.F.Z.D.L.D.D.D.D.D.D.J.D.J.G.G.H.G.G.J.J.A.D.D.D.D.S.D.I.aXaXaXaXaXaXaXaXaXaX",
"aXaXaXaXaXaXaXaXaXaXaXk.C.S.L.Z.A.K.H.Y.R.T.oXoXXX%X%X%X%X%X%XXXoX{.U.D.D.D.D.R.aXaXaXaXaXaXaXaXaXaX",
"aXaXaXaXaXaXaXaXaXaXaXT.U.D.S.J.H. XXXXX$X$X%X*X*X7X8X8X8X1X<X<X*X$XR.K.D.A.J.aXaXaXaXaXaXaXaXaXaXaX",
"aXaXaXaXaXaXaXaXaXaXaX*X{.v.A.F.[.eXyXyXaXaXaXaXaXaXaXaXaXaXaXaXaXaXB.M.c.U.(.aXaXaXaXaXaXaXaXaXaXaX",
"aXaXaXaXaXaXaXaXaXaXaX9X'./.V.g.`.9XwXaXaXaXaXaXaXaXaXaXaXaXaXaXaXaXQ K R Q 1.aXaXaXaXaXaXaXaXaXaXaX",
"aXaXaXaXaXaXaXaXaXaXaXaXt.#.H G =.0XqXaXaXaXaXaXaXaXaXaXaXaXaXaXaXy.:.#.!  .X.aXaXaXaXaXaXaXaXaXaXaX",
"aXaXaXaXaXaXaXaXaXaXaXaX{ ] / } X.u.qXaXaXaXaXaXaXaXaXaXaXaXaXaXaXaXq...[ { ' ' ' { aXaXaXaXaXaXaXaX",
"aXaXaXaXaXaXaXaXaXaXO.{ ` aXaXaXaXaXaXaXaXaXaXaXaXaXaXaXaXaXaXaXaXaXaXaXaXaXaXaXaXaXaXaXaXaXaXaXaXaX",
"aXaXaXaXaXaXaXaXaXw.O.{ { aXaXaXaXaXaXaXaXaXaXaXaXaXaXaXaXaXaXaXaXaXaXaXaXaXaXaXaXaXaXaXaXaXaXaXaXaX"
};
