/* XPM */
static char *result[] = {
/* columns rows colors chars-per-pixel */
"50 50 31 1 ",
"  c #5F5B5B",
". c #5E6465",
"X c #646464",
"o c #696565",
"O c #736664",
"+ c #7A6664",
"@ c #94655E",
"# c #836764",
"$ c #8B6763",
"% c #876864",
"& c #8C6863",
"* c #966660",
"= c #986761",
"- c #956863",
"; c #9B6963",
": c #A46A63",
"> c #A86B63",
", c #B56C62",
"< c #BD6C62",
"1 c #DA6D5E",
"2 c #EB6F5F",
"3 c #C26D62",
"4 c #CE6E61",
"5 c #D26E61",
"6 c #DC6F61",
"7 c #DE7061",
"8 c #E66F60",
"9 c #E96F60",
"0 c #E67061",
"q c #EB7161",
"w c #F27161",
/* pixels */
"2qqqqqqqqq0qqq0qqqqqwq7-XX-19wqqqqqqqqqqqqqqqqqqqq",
"2qqqqqqqqqqqqq0qqqqqqq7-XX-7qqq9qqqqqqqqqqqqqqqqqq",
"8qqq0qqq0qqqqqqqqqqqqq7-oo;7qqq9qqqqqq0qqqqqqqqqqq",
"qqqqqqqqwqqqqqqq0qqqqq7;Xo;7qqqq0qqqqqqqqqqqqqqqqq",
"qqqqqqqqqqq0qqqqqqqqqq7;oo;6qqqqqqqqqqqqqqqq0qqqqq",
"qqqqqqqqqqqqqqqqqq0qqq5;oo-6qwqqqqqqqqq0qqqqqqq0qq",
"0qqqqqqqq0qqqqqqqqqqwq7;Xo;6qqqqqqqqqqqqqqqq0qqqqq",
"qqqq0qqqqqqqqqqqqqqqqq7;oo;7qqqqqqqqq0qqq0qqq0qqqq",
"qqqqqqqqqqqqqqqqqqqqwq6-oo;6qqqqqqqq0qqqqqqqqqqqqq",
"qqqqqqqqqq0qqq0qqqqqq96;oo-6qqqqqqqqqqqqqqqq0qqq0q",
"0qqqqqqq0qqqqqqqq0qqq96-oo-69qq9qqqqqq00qqqqqq00qq",
"qqqqqqqqqqqqqqqqqqqq9w6;oX;6qqqqqqqwqqqqqqqqqqqqqq",
"qqqqqqqqqqqqqqqqqwqq9q8;Xo=6wwqqqqqqqqqqqqqqqqqwq0",
"wqqqqwqwwqqqwqqwqqqqw95-XX-6qw2qqqwqqqwwqqwwqwwqqq",
"5455555555555555555564,#XX%,4655555555555544555445",
"&&&&&&&&&&&&&&&&&&&&$%+oXXo+%&&&&&&&&&&&&&&&&&&%&&",
"XXoXooooXXooXooXoXXoXXXX.XXXXXoXXXXXXXXoXooooXXXXX",
"oooX.X.X.XoooXXoooXXooooooooooooooooooXoX..XXXoooX",
":::-#o.o#;:>::>>:::>::>>>::>::::::::::::;#o.o+;>>:",
"5774:O.O:47717776667667717666666777777774:O.O:4777",
"qqq0<+XO<qqqqqqqqqq89wqqqqq8q9qqqqqqqqqqq,+.+<0wqq",
"wwwq3+X+<wwqqqwqqwww9wqqqwqwwwqwwqwqwwqww<+X+3qwqq",
"0qqq3+X+<q2qq00qqq9q9q8qqq89qq89qqqqqqqqq<+X+<0qqq",
"qqq0<OX+<qqqqqqqqq9q9qqqq9qqqqqqqq0qqqqqq<+X+<0qqq",
"qqqq<+X+<qqqqqqqqqqq0qqqq9qqqqqqqqqqq0qqq<+.+30wqq",
"qqq03+X+<qqqqq2qqqq8qqq9qqqqqqqqqqqqqqqqq<+X+30qqq",
"qqq03+X+<qqqqq0qqqqqqqqqqqqqqqqqqqqqqqqqq<+X+<qqqq",
"0qw0<OX+<2qqqq2qq0qqqqqqqq0qqqq9q0qqqqqqq<+X+<0qqq",
"qqq03+X+<222qqq2qqq0qqq0qqqq00qqqq0qqqqqq<+X+<0qq0",
"qqq03OX+3qqqqqqq2qqqqqqqqqq9qqqqqwqqqqqqq<+X+30qqq",
"wwwq3O.+<qwwwwwwwwwwwwwwwwwwwwwwwwwwwwwwq<+.O<qwww",
"4163:O.O:45555555555154555551555555555544:O.O>4555",
"-;;&+oXX+&;;;;;;;;;;;-;;;;;;;=;;-;-;;=;-&+oXo+%;;;",
"oooX.X...XooXooXoXXooooooOooXoooooooooooo.....XXoo",
"XXXoooooooXXXXXXXXXXXX....X.XoXoXXXXXXXXXoooooXXoX",
"@:;;;;::;;:;;;:;:;;::-#OXXo$;;;;;:;;:;;:;:;::;:;;:",
"5555455455555554555554,#XX#,4555555554555545554555",
"wwwqqwwqqwqwwwwqqwwqww7;Xo-6qwwwqwwwwqwwqqwwqwwwqw",
"wqqwwqwqwwqqwqqwqwqqww6-oX-6wwwqqwqqqqwqqwqqwqqqqq",
"0qqqq0qqq0qqq0qqqqq0qq6;oo;6qq0qqqqqqqq0qqq0qqqqqq",
"qqq00qq9q8qq0qqqqqqqq96;oo-7qqqqq0qqqqqqqq0qqq0qqq",
"qqqqqqqqqqqqqqqqqqqqqq6;oX;7qqqqqqqqq0qqqqqqqqqqqq",
"qqqqqqqqqqq0qqqqqq0qqw7-oo-6wqqqqqqqqqqqqqqqqqqqq0",
"2qqqq2qqq9qqqqqqq0qqqq6;oo-79wq9qqqqqqqqqqqqqqqqqw",
"0qqqqq9q8qqqqqqqqqqqqq7-oo;6wqwqqq0qqq0qqqq0qqqqqq",
"qqqqqqqqqqqq0qq00qqqqq7;XX;6qq9qqqqqqqqqq0qqq0qqq0",
"q9qqqqqqqq9qqqqqqqqqqq7-oo;7qqqqqqqqqqqqqqqqqqqqqq",
"qqqqqq8qqqqqqqqqqqqqwq7;oX-7qq0qqqqqqqq0qqqqqqqqqq",
"qqqqqqqqqqqqqqqqqqqqqq7;..@299qqqqqqqqqqqqqqq0qqqq",
"qqqq0qqqqqqqqqqq00qqqq7-..@1qqqqq0qqqqqqqq0qqq0qqq"
};